<svg xmlns="http://www.w3.org/2000/svg" viewBox="0 0 339.27 340.71"><defs><style>.cls-1{fill:#ff692e;}.cls-2{fill:#0034b9;}</style></defs><g id="Layer_2" data-name="Layer 2"><g id="Layer_1-2" data-name="Layer 1"><path class="cls-1" d="M114.34,17.79,116,276.55l101.79-59.68,19.65-11.52,101.79-59.66ZM226,185.7l-19.65,11.52-67.73,39.7-1.19-179.8L293.69,146Z"/><polygon class="cls-1" points="278.02 273.58 258.37 285.11 228.24 233.7 216.72 214.06 236.37 202.53 247.89 222.18 278.02 273.58"/><polygon class="cls-2" points="102.65 0 101.98 147.84 101.87 171.94 101.43 270.07 101.43 270.69 101.33 295.08 63.34 317.34 23.49 340.71 23.42 316.42 23.42 315.77 80.37 282.41 80.92 160.03 81.03 135.93 81.57 17.59 102.65 0"/><polygon class="cls-2" points="69.04 30.31 68.46 151.85 68.36 171.66 67.98 252.33 67.98 252.83 67.89 272.89 34.79 291.19 0.06 310.4 0 290.43 0 289.9 49.63 262.47 50.11 161.87 50.2 142.05 50.67 44.77 69.04 30.31"/></g></g></svg>